# Blender 4.4.3
# www.blender.org
mtllib DirectionTest.mtl
o +Y
v -0.500000 -1.000000 -29.000000
v -0.500000 2.291596 -29.000000
v -0.500000 -1.000000 -31.000000
v -0.500000 2.291596 -31.000000
v 0.500000 -1.000000 -29.000000
v 0.500000 2.291596 -29.000000
v 0.500000 -1.000000 -31.000000
v 0.500000 2.291596 -31.000000
v 0.000000 -1.000000 -31.000000
v 0.000000 2.291596 -31.000000
v 0.000000 -1.000000 -29.000000
v 0.000000 2.291596 -29.000000
v -1.232430 3.756455 -29.000000
v -1.232430 3.756455 -31.000000
v -0.732430 3.756455 -31.000000
v -0.732430 3.756455 -29.000000
v 1.027664 3.787958 -29.000000
v 1.027664 3.787958 -31.000000
v 0.527664 3.787958 -31.000000
v 0.527664 3.787958 -29.000000
v -2.317843 0.499743 -29.000000
v -2.317843 0.499743 -31.000000
v -1.817843 0.499743 -31.000000
v -1.817843 0.499743 -29.000000
v -2.317843 1.964602 -29.000000
v -2.317843 1.964602 -31.000000
v -1.817843 1.964602 -31.000000
v -1.817843 1.964602 -29.000000
v -2.317843 0.988029 -29.000000
v -2.317843 1.476315 -29.000000
v -2.317843 1.476315 -31.000000
v -2.317843 0.988029 -31.000000
v -1.817843 1.476315 -31.000000
v -1.817843 0.988029 -31.000000
v -1.817843 0.988029 -29.000000
v -1.817843 1.476315 -29.000000
v -2.766752 0.988029 -29.000000
v -2.766752 1.476315 -29.000000
v -2.766752 1.476315 -31.000000
v -2.766752 0.988029 -31.000000
v -1.368935 1.476315 -31.000000
v -1.368935 0.988029 -31.000000
v -1.368935 0.988029 -29.000000
v -1.368935 1.476315 -29.000000
vn -1.0000 -0.0000 -0.0000
vn -0.0000 -0.0000 -1.0000
vn 1.0000 -0.0000 -0.0000
vn -0.0000 -0.0000 1.0000
vn -0.0000 -1.0000 -0.0000
vn -0.8944 -0.4472 -0.0000
vn -0.0000 1.0000 -0.0000
vn 0.8944 0.4472 -0.0000
vn -0.9431 0.3326 -0.0000
vn 0.9431 -0.3326 -0.0000
vt 0.375000 0.000000
vt 0.625000 0.000000
vt 0.625000 0.250000
vt 0.375000 0.250000
vt 0.375000 0.375000
vt 0.625000 0.375000
vt 0.625000 0.500000
vt 0.375000 0.500000
vt 0.625000 0.750000
vt 0.375000 0.750000
vt 0.375000 0.875000
vt 0.625000 0.875000
vt 0.625000 1.000000
vt 0.375000 1.000000
vt 0.250000 0.500000
vt 0.250000 0.750000
vt 0.125000 0.500000
vt 0.125000 0.750000
vt 0.750000 0.500000
vt 0.875000 0.500000
vt 0.875000 0.750000
vt 0.750000 0.750000
s 0
f 1/1/1 2/2/1 4/3/1 3/4/1
f 9/5/2 10/6/2 8/7/2 7/8/2
f 7/8/3 8/7/3 6/9/3 5/10/3
f 11/11/4 12/12/4 2/13/4 1/14/4
f 9/15/5 7/8/5 5/10/5 11/16/5
f 4/3/6 2/2/6 13/2/6 14/3/6
f 12/12/4 6/9/4 17/9/4 20/12/4
f 3/17/5 9/15/5 11/16/5 1/18/5
f 5/10/4 6/9/4 12/12/4 11/11/4
f 3/4/2 4/3/2 10/6/2 9/5/2
f 15/19/7 14/20/7 13/21/7 16/22/7
f 10/6/2 4/3/2 14/3/2 15/6/2
f 2/13/4 12/12/4 16/12/4 13/13/4
f 12/22/8 10/19/8 15/19/8 16/22/8
f 18/7/7 19/19/7 20/22/7 17/9/7
f 8/7/2 10/6/2 19/6/2 18/7/2
f 10/19/9 12/22/9 20/22/9 19/19/9
f 6/9/10 8/7/10 18/7/10 17/9/10
f 31/3/1 30/2/1 25/2/1 26/3/1
f 27/19/7 26/20/7 25/21/7 28/22/7
f 33/6/2 31/3/2 26/3/2 27/6/2
f 30/13/4 36/12/4 28/12/4 25/13/4
f 36/22/3 33/19/3 27/19/3 28/22/3
f 24/22/3 23/19/3 34/19/3 35/22/3
f 33/19/7 36/22/7 44/22/7 41/19/7
f 21/13/4 24/12/4 35/12/4 29/13/4
f 29/13/4 35/12/4 36/12/4 30/13/4
f 23/6/2 22/3/2 32/3/2 34/6/2
f 34/6/2 32/3/2 31/3/2 33/6/2
f 22/3/1 21/2/1 29/2/1 32/3/1
f 31/3/2 32/3/2 40/3/2 39/3/2
f 40/3/1 37/2/1 38/2/1 39/3/1
f 32/3/5 29/2/5 37/2/5 40/3/5
f 29/13/4 30/13/4 38/13/4 37/13/4
f 30/2/7 31/3/7 39/3/7 38/2/7
f 43/22/3 42/19/3 41/19/3 44/22/3
f 36/12/4 35/12/4 43/12/4 44/12/4
f 34/6/2 33/6/2 41/6/2 42/6/2
f 35/22/5 34/19/5 42/19/5 43/22/5
o -Y
v -0.525090 -1.000000 31.000000
v -0.525090 1.000000 31.000000
v -0.525090 -1.000000 29.000000
v -0.525090 1.000000 29.000000
v 0.525090 -1.000000 31.000000
v 0.525090 1.000000 31.000000
v 0.525090 -1.000000 29.000000
v 0.525090 1.000000 29.000000
v 0.000000 -1.000000 29.000000
v 0.000000 1.000000 29.000000
v 0.000000 -1.000000 31.000000
v 0.000000 1.000000 31.000000
v 0.567042 2.067930 29.000000
v 1.092133 2.067930 29.000000
v 1.092133 2.067930 31.000000
v 0.567042 2.067930 31.000000
v -0.912569 2.001775 31.000000
v -0.912569 2.001775 29.000000
v -0.387479 2.001775 31.000000
v -0.387479 2.001775 29.000000
v 0.829587 0.335611 29.000000
v 0.829587 0.860701 29.000000
v 0.829587 0.860701 31.000000
v 0.829587 0.335610 31.000000
v 2.217707 0.335611 29.000000
v 2.217707 0.860701 29.000000
v 2.217707 0.860701 31.000000
v 2.217707 0.335610 31.000000
vn -1.0000 -0.0000 -0.0000
vn -0.0000 -0.0000 -1.0000
vn 1.0000 -0.0000 -0.0000
vn -0.0000 -0.0000 1.0000
vn -0.0000 -1.0000 -0.0000
vn 0.9327 0.3607 -0.0000
vn -0.0000 1.0000 -0.0000
vn -0.8832 0.4690 -0.0000
vn 0.8832 -0.4690 -0.0000
vn -0.9327 -0.3607 -0.0000
vt 0.375000 0.000000
vt 0.625000 0.000000
vt 0.625000 0.250000
vt 0.375000 0.250000
vt 0.375000 0.375000
vt 0.625000 0.375000
vt 0.625000 0.500000
vt 0.375000 0.500000
vt 0.625000 0.750000
vt 0.375000 0.750000
vt 0.375000 0.875000
vt 0.625000 0.875000
vt 0.625000 1.000000
vt 0.375000 1.000000
vt 0.250000 0.500000
vt 0.250000 0.750000
vt 0.750000 0.750000
vt 0.750000 0.500000
vt 0.125000 0.500000
vt 0.125000 0.750000
vt 0.875000 0.500000
vt 0.875000 0.750000
s 0
f 45/23/11 46/24/11 48/25/11 47/26/11
f 53/27/12 54/28/12 52/29/12 51/30/12
f 51/30/13 52/29/13 50/31/13 49/32/13
f 55/33/14 56/34/14 46/35/14 45/36/14
f 53/37/15 51/30/15 49/32/15 55/38/15
f 56/39/16 54/40/16 64/40/16 63/39/16
f 52/29/12 54/28/12 57/28/12 58/29/12
f 47/41/15 53/37/15 55/38/15 45/42/15
f 49/32/14 50/31/14 56/34/14 55/33/14
f 47/26/12 48/25/12 54/28/12 53/27/12
f 58/29/17 57/40/17 60/39/17 59/31/17
f 54/40/18 56/39/18 60/39/18 57/40/18
f 50/31/19 52/29/19 58/29/19 59/31/19
f 56/34/14 50/31/14 59/31/14 60/34/14
f 64/40/17 62/43/17 61/44/17 63/39/17
f 48/25/20 46/24/20 61/24/20 62/25/20
f 54/28/12 48/25/12 62/25/12 64/28/12
f 46/35/14 56/34/14 63/34/14 61/35/14
f 66/29/11 65/40/11 68/39/11 67/31/11
f 70/29/13 71/31/13 72/39/13 69/40/13
f 68/39/14 72/39/14 71/31/14 67/31/14
f 66/29/12 70/29/12 69/40/12 65/40/12
f 65/40/15 69/40/15 72/39/15 68/39/15
f 67/31/17 71/31/17 70/29/17 66/29/17
o -X
v -29.000000 -0.000000 1.414215
v -29.000000 1.414213 0.000002
v -31.000000 0.000000 1.414215
v -31.000000 1.414214 0.000002
v -29.000000 -1.414214 0.000002
v -29.000000 0.000000 -1.414212
v -31.000000 -1.414213 0.000002
v -31.000000 0.000000 -1.414212
v -29.000000 1.871145 3.285360
v -29.000000 3.285358 1.871147
v -31.000000 3.285358 1.871147
v -31.000000 1.871145 3.285360
v -31.000000 -3.285358 -1.871143
v -31.000000 -1.871145 -3.285356
v -29.000000 -1.871145 -3.285356
v -29.000000 -3.285358 -1.871143
v -31.000000 -1.871145 3.285360
v -31.000000 -3.285358 1.871147
v -29.000000 -3.285358 1.871147
v -29.000000 -1.871145 3.285360
v -31.000000 1.871145 -3.285356
v -31.000000 3.285358 -1.871143
v -29.000000 3.285358 -1.871143
v -29.000000 1.871145 -3.285356
v -29.000000 -0.399080 6.517248
v -29.000000 0.499559 6.517248
v -31.000000 0.499559 6.517249
v -31.000000 -0.399080 6.517248
v -29.000000 0.499559 3.754073
v -29.000000 -0.399080 3.754073
v -31.000000 0.499559 3.754073
v -31.000000 -0.399080 3.754073
vn -1.0000 -0.0000 -0.0000
vn -0.0000 1.0000 -0.0000
vn 1.0000 -0.0000 -0.0000
vn -0.0000 -0.0000 -1.0000
vn -0.0000 -0.0000 1.0000
vn -0.0000 0.7071 0.7071
vn -0.0000 0.7071 -0.7071
vn -0.0000 -0.7071 0.7071
vn -0.0000 -0.7071 -0.7071
vn -0.0000 -1.0000 -0.0000
vt 0.625000 0.250000
vt 0.375000 0.250000
vt 0.625000 0.500000
vt 0.375000 0.500000
vt 0.625000 0.000000
vt 0.375000 0.750000
vt 0.625000 0.750000
vt 0.625000 1.000000
vt 0.375000 1.000000
vt 0.375000 0.000000
vt 0.125000 0.500000
vt 0.125000 0.750000
vt 0.875000 0.500000
vt 0.875000 0.750000
s 0
f 99/45/21 103/45/21 104/46/21 100/46/21
f 75/46/21 76/45/21 80/47/21 79/48/21
f 98/49/22 101/49/22 103/45/22 99/45/22
f 77/50/23 78/51/23 74/52/23 73/53/23
f 102/54/24 104/46/24 103/45/24 101/49/24
f 97/54/25 98/49/25 99/45/25 100/46/25
f 81/54/26 82/49/26 83/45/26 84/46/26
f 74/49/23 82/49/23 81/54/23 73/54/23
f 76/45/27 83/45/27 82/49/27 74/49/27
f 75/46/21 84/46/21 83/45/21 76/45/21
f 73/54/28 81/54/28 84/46/28 75/46/28
f 85/48/29 86/47/29 87/51/29 88/50/29
f 80/47/21 86/47/21 85/48/21 79/48/21
f 78/51/27 87/51/27 86/47/27 80/47/27
f 77/50/23 88/50/23 87/51/23 78/51/23
f 79/48/28 85/48/28 88/50/28 77/50/28
f 89/55/28 90/48/28 91/50/28 92/56/28
f 79/48/21 90/48/21 89/55/21 75/55/21
f 77/50/29 91/50/29 90/48/29 79/48/29
f 73/56/23 92/56/23 91/50/23 77/50/23
f 75/55/26 89/55/26 92/56/26 73/56/26
f 93/47/27 94/57/27 95/58/27 96/51/27
f 76/57/21 94/57/21 93/47/21 80/47/21
f 74/58/26 95/58/26 94/57/26 76/57/26
f 78/51/23 96/51/23 95/58/23 74/58/23
f 80/47/29 93/47/29 96/51/29 78/51/29
f 97/54/23 102/54/23 101/49/23 98/49/23
f 100/46/30 104/46/30 102/54/30 97/54/30
o +X
v 31.000000 -1.414213 -0.000002
v 31.000000 0.000000 1.414212
v 29.000000 -1.414214 -0.000002
v 29.000000 0.000000 1.414212
v 31.000000 0.000000 -1.414215
v 31.000000 1.414214 -0.000002
v 29.000000 -0.000000 -1.414215
v 29.000000 1.414213 -0.000002
v 31.000000 -3.451088 2.036873
v 31.000000 -2.036875 3.451087
v 29.000000 -2.036875 3.451087
v 29.000000 -3.451088 2.036873
v 29.000000 2.036875 -3.451090
v 29.000000 3.451088 -2.036877
v 31.000000 3.451088 -2.036877
v 31.000000 2.036875 -3.451090
v 29.000000 -3.451088 -2.036877
v 29.000000 -2.036875 -3.451090
v 31.000000 -2.036875 -3.451090
v 31.000000 -3.451088 -2.036877
v 29.000000 3.451088 2.036873
v 29.000000 2.036875 3.451087
v 31.000000 2.036875 3.451087
v 31.000000 3.451088 2.036873
v 30.302273 -0.302273 -5.103538
v 30.302273 -0.302273 -4.498991
v 29.697727 -0.302273 -5.103538
v 29.697727 -0.302273 -4.498991
v 30.302273 0.302274 -5.103538
v 30.302273 0.302274 -4.498991
v 29.697727 0.302273 -5.103538
v 29.697727 0.302273 -4.498991
v 30.302273 -1.172995 -5.103538
v 30.302273 -1.172995 -4.498991
v 29.697727 -1.172995 -4.498991
v 29.697727 -1.172995 -5.103538
v 29.697727 1.172995 -5.103538
v 29.697727 1.172995 -4.498991
v 30.302273 1.172995 -4.498991
v 30.302273 1.172995 -5.103538
v 29.697727 -0.302273 -5.974259
v 29.697727 0.302274 -5.974259
v 30.302273 0.302274 -5.974259
v 30.302273 -0.302273 -5.974259
v 29.697727 0.302273 -3.628269
v 29.697727 -0.302273 -3.628269
v 30.302273 -0.302273 -3.628269
v 30.302273 0.302274 -3.628269
vn 1.0000 -0.0000 -0.0000
vn -1.0000 -0.0000 -0.0000
vn -0.0000 -1.0000 -0.0000
vn -0.0000 -0.7071 0.7071
vn -0.0000 0.7071 0.7071
vn -0.0000 -0.7071 -0.7071
vn -0.0000 0.7071 -0.7071
vn -0.0000 -0.0000 1.0000
vn -0.0000 -0.0000 -1.0000
vn -0.0000 1.0000 -0.0000
vt 0.625000 0.000000
vt 0.375000 0.000000
vt 0.375000 0.250000
vt 0.625000 0.250000
vt 0.625000 0.500000
vt 0.375000 0.500000
vt 0.375000 0.750000
vt 0.625000 0.750000
vt 0.625000 1.000000
vt 0.375000 1.000000
vt 0.125000 0.500000
vt 0.125000 0.750000
vt 0.875000 0.500000
vt 0.875000 0.750000
s 0
f 130/59/31 138/59/31 137/60/31 129/60/31
f 107/61/32 108/62/32 112/63/32 111/64/32
f 137/60/33 138/59/33 139/62/33 140/61/33
f 109/65/31 110/66/31 106/67/31 105/68/31
f 133/65/31 134/66/31 130/67/31 129/68/31
f 131/61/32 132/62/32 136/63/32 135/64/32
f 113/60/34 114/59/34 115/62/34 116/61/34
f 106/59/31 114/59/31 113/60/31 105/60/31
f 108/62/35 115/62/35 114/59/35 106/59/35
f 107/61/32 116/61/32 115/62/32 108/62/32
f 105/60/36 113/60/36 116/61/36 107/61/36
f 117/64/37 118/63/37 119/66/37 120/65/37
f 112/63/32 118/63/32 117/64/32 111/64/32
f 110/66/35 119/66/35 118/63/35 112/63/35
f 109/65/31 120/65/31 119/66/31 110/66/31
f 111/64/36 117/64/36 120/65/36 109/65/36
f 121/69/36 122/64/36 123/65/36 124/70/36
f 111/64/32 122/64/32 121/69/32 107/69/32
f 109/65/37 123/65/37 122/64/37 111/64/37
f 105/70/31 124/70/31 123/65/31 109/65/31
f 107/69/34 121/69/34 124/70/34 105/70/34
f 125/63/35 126/71/35 127/72/35 128/66/35
f 108/71/32 126/71/32 125/63/32 112/63/32
f 106/72/34 127/72/34 126/71/34 108/71/34
f 110/66/31 128/66/31 127/72/31 106/72/31
f 112/63/37 125/63/37 128/66/37 110/66/37
f 132/62/38 139/62/38 138/59/38 130/59/38
f 131/61/32 140/61/32 139/62/32 132/62/32
f 129/60/39 137/60/39 140/61/39 131/61/39
f 141/64/40 142/63/40 143/66/40 144/65/40
f 136/63/32 142/63/32 141/64/32 135/64/32
f 134/66/38 143/66/38 142/63/38 136/63/38
f 133/65/31 144/65/31 143/66/31 134/66/31
f 135/64/39 141/64/39 144/65/39 133/65/39
f 145/69/39 146/64/39 147/65/39 148/70/39
f 135/64/32 146/64/32 145/69/32 131/69/32
f 133/65/40 147/65/40 146/64/40 135/64/40
f 129/70/31 148/70/31 147/65/31 133/65/31
f 131/69/33 145/69/33 148/70/33 129/70/33
f 149/63/38 150/71/38 151/72/38 152/66/38
f 132/71/32 150/71/32 149/63/32 136/63/32
f 130/72/33 151/72/33 150/71/33 132/71/33
f 134/66/31 152/66/31 151/72/31 130/72/31
f 136/63/40 149/63/40 152/66/40 134/66/40
o +Z
v -0.499998 29.000000 1.000002
v 1.500002 29.000000 1.000002
v -0.499998 31.000000 1.000002
v 1.500002 31.000000 1.000002
v -1.499998 29.000000 -0.999998
v 0.500002 29.000000 -0.999998
v -1.499998 31.000000 -0.999998
v 0.500002 31.000000 -0.999998
v -0.499998 31.000000 1.767551
v -0.499998 29.000000 1.767551
v 1.500002 29.000000 1.767551
v 1.500002 31.000000 1.767551
v 0.500002 31.000000 -1.587908
v -1.499998 31.000000 -1.587908
v -1.499998 29.000000 -1.587908
v 0.500002 29.000000 -1.587908
v 1.806468 31.000000 -0.999998
v 1.806467 29.000000 -0.999998
v 1.806468 31.000000 -1.587908
v 1.806467 29.000000 -1.587908
v -1.414524 31.000000 1.000002
v -1.414524 29.000000 1.000002
v -1.414524 31.000000 1.767551
v -1.414524 29.000000 1.767551
v -3.615366 29.000000 0.535099
v -3.615366 31.000000 0.535099
v -3.615366 31.000000 -0.052810
v -3.615366 29.000000 -0.052810
v -2.308900 31.000000 0.535099
v -2.308900 29.000000 0.535099
v -2.308900 31.000000 -0.052810
v -2.308900 29.000000 -0.052810
v -3.179877 31.000000 0.535099
v -2.744389 31.000000 0.535099
v -2.744388 31.000000 -0.052810
v -3.179877 31.000000 -0.052810
v -3.179877 29.000000 0.535099
v -2.744389 29.000000 0.535099
v -3.179877 29.000000 -0.052810
v -2.744389 29.000000 -0.052810
v -3.179877 31.000000 1.065851
v -2.744389 31.000000 1.065851
v -3.179877 29.000000 1.065851
v -2.744389 29.000000 1.065851
v -2.744388 31.000000 -0.610780
v -3.179877 31.000000 -0.610780
v -3.179877 29.000000 -0.610780
v -2.744389 29.000000 -0.610780
vn -0.0000 1.0000 -0.0000
vn -0.0000 -1.0000 -0.0000
vn -0.8944 -0.0000 0.4472
vn 0.8944 -0.0000 -0.4472
vn -0.0000 -0.0000 1.0000
vn 1.0000 -0.0000 -0.0000
vn -0.0000 -0.0000 -1.0000
vn -1.0000 -0.0000 -0.0000
vt 0.625000 0.250000
vt 0.375000 0.250000
vt 0.625000 0.500000
vt 0.375000 0.500000
vt 0.375000 0.750000
vt 0.625000 0.750000
vt 0.625000 1.000000
vt 0.375000 1.000000
vt 0.125000 0.500000
vt 0.125000 0.750000
vt 0.875000 0.500000
vt 0.875000 0.750000
vt 0.375000 0.000000
vt 0.625000 0.000000
s 0
f 156/73/41 155/74/41 161/74/41 164/73/41
f 155/74/41 156/73/41 160/75/41 159/76/41
f 165/75/41 160/75/41 169/75/41 171/75/41
f 157/77/42 158/78/42 154/79/42 153/80/42
f 155/81/43 159/76/43 157/77/43 153/82/43
f 160/75/44 156/83/44 154/84/44 158/78/44
f 162/85/45 163/86/45 164/73/45 161/74/45
f 153/80/42 154/79/42 163/79/42 162/80/42
f 154/84/46 156/83/46 164/83/46 163/84/46
f 162/85/45 161/74/45 175/74/45 176/85/45
f 166/76/47 165/75/47 168/78/47 167/77/47
f 159/76/41 160/75/41 165/75/41 166/76/41
f 158/78/42 157/77/42 167/77/42 168/78/42
f 157/77/48 159/76/48 166/76/48 167/77/48
f 169/75/46 170/78/46 172/78/46 171/75/46
f 160/75/45 158/78/45 170/78/45 169/75/45
f 158/78/42 168/78/42 172/78/42 170/78/42
f 168/78/47 165/75/47 171/75/47 172/78/47
f 173/81/48 174/82/48 176/82/48 175/81/48
f 153/80/42 162/80/42 176/80/42 174/80/42
f 155/81/47 153/82/47 174/82/47 173/81/47
f 161/74/41 155/74/41 173/74/41 175/74/41
f 187/75/41 186/75/41 181/75/41 183/75/41
f 181/75/46 182/78/46 184/78/46 183/75/46
f 186/75/45 190/78/45 182/78/45 181/75/45
f 190/78/42 192/78/42 184/78/42 182/78/42
f 192/78/47 187/75/47 183/75/47 184/78/47
f 180/78/47 179/75/47 188/75/47 191/78/47
f 191/78/47 188/75/47 187/75/47 192/78/47
f 177/78/42 180/78/42 191/78/42 189/78/42
f 189/78/42 191/78/42 192/78/42 190/78/42
f 178/75/45 177/78/45 189/78/45 185/75/45
f 190/78/46 186/75/46 194/75/46 196/78/46
f 179/75/41 178/75/41 185/75/41 188/75/41
f 188/75/41 185/75/41 186/75/41 187/75/41
f 193/75/45 195/78/45 196/78/45 194/75/45
f 189/78/42 190/78/42 196/78/42 195/78/42
f 186/75/41 185/75/41 193/75/41 194/75/41
f 185/75/48 189/78/48 195/78/48 193/75/48
f 191/78/42 199/78/42 200/78/42 192/78/42
f 187/75/41 197/75/41 198/75/41 188/75/41
f 192/78/46 200/78/46 197/75/46 187/75/46
f 197/75/47 200/78/47 199/78/47 198/75/47
f 191/78/48 188/75/48 198/75/48 199/78/48
f 177/78/48 178/75/48 179/75/48 180/78/48
o -Z
v -1.500002 -31.000000 0.999998
v 0.499998 -31.000000 0.999998
v -1.500002 -29.000000 0.999998
v 0.499998 -29.000000 0.999998
v -0.500002 -31.000000 -1.000002
v 1.499998 -31.000000 -1.000002
v -0.500002 -29.000000 -1.000002
v 1.499998 -29.000000 -1.000002
v 1.499998 -29.000000 -1.724556
v -0.500002 -29.000000 -1.724556
v -0.500002 -31.000000 -1.724556
v 1.499998 -31.000000 -1.724556
v -1.500002 -29.000000 1.606419
v -1.500002 -31.000000 1.606419
v 0.499998 -31.000000 1.606419
v 0.499998 -29.000000 1.606419
v -1.547456 -31.000000 -1.000002
v -1.547456 -29.000000 -1.000002
v -1.547456 -31.000000 -1.724556
v -1.547456 -29.000000 -1.724556
v 1.571078 -31.000000 0.999998
v 1.571078 -29.000000 0.999998
v 1.571078 -31.000000 1.606418
v 1.571078 -29.000000 1.606418
v -3.487558 -31.000000 0.273803
v -3.487558 -29.000000 0.273803
v -3.487558 -31.000000 -0.450752
v -3.487558 -29.000000 -0.450751
v -1.880605 -31.000000 0.273803
v -1.880605 -29.000000 0.273803
v -1.880605 -31.000000 -0.450752
v -1.880605 -29.000000 -0.450752
vn -0.0000 -0.0000 -1.0000
vn -0.0000 1.0000 -0.0000
vn -0.0000 -1.0000 -0.0000
vn -0.8944 -0.0000 -0.4472
vn 0.8944 -0.0000 0.4472
vn 1.0000 -0.0000 -0.0000
vn -0.0000 -0.0000 1.0000
vn -1.0000 -0.0000 -0.0000
vt 0.875000 0.750000
vt 0.875000 0.500000
vt 0.375000 0.250000
vt 0.625000 0.250000
vt 0.625000 0.500000
vt 0.375000 0.500000
vt 0.625000 0.750000
vt 0.375000 0.750000
vt 0.625000 1.000000
vt 0.375000 1.000000
vt 0.125000 0.500000
vt 0.125000 0.750000
vt 0.375000 0.000000
vt 0.625000 0.000000
s 0
f 202/87/49 204/88/49 222/88/49 221/87/49
f 203/89/50 204/90/50 208/91/50 207/92/50
f 206/93/51 205/94/51 211/94/51 212/93/51
f 205/94/51 206/93/51 202/95/51 201/96/51
f 203/97/52 207/92/52 205/94/52 201/98/52
f 208/91/53 204/88/53 202/87/53 206/93/53
f 210/92/49 209/91/49 212/93/49 211/94/49
f 210/92/49 211/94/49 219/94/49 220/92/49
f 208/91/54 206/93/54 212/93/54 209/91/54
f 207/92/50 208/91/50 209/91/50 210/92/50
f 214/99/55 215/100/55 216/90/55 213/89/55
f 203/97/56 201/98/56 214/98/56 213/97/56
f 204/90/50 203/89/50 213/89/50 216/90/50
f 201/96/51 202/95/51 215/95/51 214/96/51
f 217/94/56 218/92/56 220/92/56 219/94/56
f 205/94/55 207/92/55 218/92/55 217/94/55
f 207/92/50 210/92/50 220/92/50 218/92/50
f 211/94/51 205/94/51 217/94/51 219/94/51
f 221/87/54 222/88/54 224/88/54 223/87/54
f 204/90/50 216/90/50 224/90/50 222/90/50
f 216/90/55 215/100/55 223/100/55 224/90/55
f 215/95/51 202/95/51 221/95/51 223/95/51
f 225/94/56 226/92/56 228/92/56 227/94/56
f 229/94/54 231/94/54 232/92/54 230/92/54
f 227/94/51 231/94/51 229/94/51 225/94/51
f 225/94/55 229/94/55 230/92/55 226/92/55
f 226/92/50 230/92/50 232/92/50 228/92/50
f 228/92/49 232/92/49 231/94/49 227/94/49
